<svg width="1600" height="1000" viewBox="0 0 1600 1000" fill="none" xmlns="http://www.w3.org/2000/svg">
  <rect width="1600" height="1000" rx="40" fill="#161711"/>
  <rect x="36" y="36" width="1528" height="928" rx="32" fill="url(#panel)"/>
  <circle cx="1220" cy="250" r="182" fill="#C8A56E" fill-opacity="0.08"/>
  <circle cx="1220" cy="250" r="126" stroke="#C8A56E" stroke-opacity="0.22" stroke-width="2"/>
  <circle cx="1220" cy="250" r="82" stroke="#8FA278" stroke-opacity="0.26" stroke-width="2"/>
  <text x="1195" y="258" fill="#F3E7D2" font-family="Arial, sans-serif" font-size="28" font-weight="700">AI</text>
  <rect x="122" y="124" width="960" height="752" rx="28" fill="#1B1B16" stroke="#C8A56E" stroke-opacity="0.18"/>
  <text x="184" y="198" fill="#F3E7D2" font-family="Arial, sans-serif" font-size="34" font-weight="700">AI-assisted prototyping inside product work</text>
  <text x="184" y="238" fill="#C3B59D" font-family="Arial, sans-serif" font-size="18">Breaking vague founder direction into faster loops of structure, explanation, and product movement</text>
  <rect x="184" y="290" width="836" height="132" rx="24" fill="#232119"/>
  <text x="224" y="342" fill="#C8A56E" font-family="Arial, sans-serif" font-size="18" font-weight="600">01</text>
  <text x="272" y="342" fill="#F3E7D2" font-family="Arial, sans-serif" font-size="26" font-weight="700">Take the vague ask</text>
  <text x="272" y="378" fill="#C3B59D" font-family="Arial, sans-serif" font-size="16">Unclear requests arrive as “let’s build something smarter” or “make this module clearer.”</text>
  <rect x="184" y="450" width="836" height="132" rx="24" fill="#232119"/>
  <text x="224" y="502" fill="#8FA278" font-family="Arial, sans-serif" font-size="18" font-weight="600">02</text>
  <text x="272" y="502" fill="#F3E7D2" font-family="Arial, sans-serif" font-size="26" font-weight="700">Decompose the system</text>
  <text x="272" y="538" fill="#C3B59D" font-family="Arial, sans-serif" font-size="16">Use AI to map the actors, inputs, dependencies, and likely user questions faster.</text>
  <rect x="184" y="610" width="836" height="132" rx="24" fill="#232119"/>
  <text x="224" y="662" fill="#6F8FA6" font-family="Arial, sans-serif" font-size="18" font-weight="600">03</text>
  <text x="272" y="662" fill="#F3E7D2" font-family="Arial, sans-serif" font-size="26" font-weight="700">Prototype the clearer version</text>
  <text x="272" y="698" fill="#C3B59D" font-family="Arial, sans-serif" font-size="16">Turn the insight into workflows, rough UI logic, and internal communication people can act on.</text>
  <g>
    <rect x="1136" y="420" width="304" height="344" rx="28" fill="#201E18" stroke="#8FA278" stroke-opacity="0.2"/>
    <text x="1180" y="488" fill="#F3E7D2" font-family="Arial, sans-serif" font-size="28" font-weight="700">AI layer</text>
    <text x="1180" y="526" fill="#C3B59D" font-family="Arial, sans-serif" font-size="16">Used for speed, structure, and iteration</text>
    <rect x="1180" y="572" width="216" height="18" rx="9" fill="#2D2B23"/>
    <rect x="1180" y="608" width="180" height="18" rx="9" fill="#2D2B23"/>
    <rect x="1180" y="644" width="236" height="18" rx="9" fill="#2D2B23"/>
    <text x="1192" y="586" fill="#C3B59D" font-family="Arial, sans-serif" font-size="14">Scope clarity</text>
    <text x="1192" y="622" fill="#C3B59D" font-family="Arial, sans-serif" font-size="14">Prototype speed</text>
    <text x="1192" y="658" fill="#C3B59D" font-family="Arial, sans-serif" font-size="14">Internal alignment</text>
    <path d="M1180 720C1218 676 1258 640 1296 640C1338 640 1358 670 1396 624" stroke="#C8A56E" stroke-width="4" stroke-linecap="round"/>
  </g>
  <path d="M1046 356C1114 344 1168 306 1220 250" stroke="#C8A56E" stroke-width="3" stroke-dasharray="8 10"/>
  <path d="M1044 516C1118 498 1182 466 1244 402" stroke="#8FA278" stroke-width="3" stroke-dasharray="8 10"/>
  <path d="M1044 676C1126 664 1194 642 1272 582" stroke="#6F8FA6" stroke-width="3" stroke-dasharray="8 10"/>
  <defs>
    <linearGradient id="panel" x1="74" y1="86" x2="1526" y2="942" gradientUnits="userSpaceOnUse">
      <stop stop-color="#1D1A15"/>
      <stop offset="1" stop-color="#242118"/>
    </linearGradient>
  </defs>
</svg>
